<svg width="24" height="24" viewBox="0 0 24 24" fill="none" xmlns="http://www.w3.org/2000/svg">
<g clip-path="url(#clip0_33_9721)">
<path d="M12 4.12201L10.9245 3.01651C8.39996 0.421512 3.77096 1.31701 2.09996 4.57951C1.31546 6.11401 1.13846 8.32951 2.57096 11.157C3.95096 13.8795 6.82196 17.1405 12 20.6925C17.178 17.1405 20.0475 13.8795 21.429 11.157C22.8615 8.32801 22.686 6.11401 21.9 4.57951C20.229 1.31701 15.6 0.420012 13.0755 3.01501L12 4.12201ZM12 22.5C-10.9995 7.30201 4.91846 -4.55999 11.736 1.71451C11.826 1.79701 11.9145 1.88251 12 1.97101C12.0846 1.88259 12.1727 1.79753 12.264 1.71601C19.08 -4.56299 34.9995 7.30051 12 22.5Z" fill="#212529"/>
</g>
<defs>
<clipPath id="clip0_33_9721">
<rect width="24" height="24" fill="white"/>
</clipPath>
</defs>
</svg>
