<svg width="24" height="24" viewBox="0 0 24 24" fill="none" xmlns="http://www.w3.org/2000/svg">
<g clip-path="url(#clip0_40_9727)">
<path d="M18.204 0.489006C18.5356 0.406061 18.8817 0.399753 19.2161 0.470561C19.5505 0.541369 19.8644 0.687431 20.1339 0.89766C20.4034 1.10789 20.6214 1.37676 20.7715 1.68385C20.9216 1.99095 20.9997 2.3282 21 2.67001V4.50001H21.75C22.3467 4.50001 22.919 4.73706 23.341 5.15902C23.7629 5.58097 24 6.15327 24 6.75001V20.25C24 20.8467 23.7629 21.419 23.341 21.841C22.919 22.263 22.3467 22.5 21.75 22.5H2.25C1.65326 22.5 1.08097 22.263 0.65901 21.841C0.237053 21.419 1.47137e-07 20.8467 1.47137e-07 20.25V6.75001C-0.000209191 6.17079 0.222964 5.6138 0.623066 5.19498C1.02317 4.77616 1.56938 4.52776 2.148 4.50151L18.204 0.489006ZM8.343 4.50001H19.5V2.67001C19.4997 2.55621 19.4736 2.44396 19.4235 2.34177C19.3735 2.23958 19.3008 2.15012 19.2111 2.08016C19.1213 2.01021 19.0168 1.96159 18.9055 1.938C18.7941 1.91441 18.6789 1.91647 18.5685 1.94401L8.343 4.50001ZM2.25 6.00001C2.05109 6.00001 1.86032 6.07902 1.71967 6.21968C1.57902 6.36033 1.5 6.55109 1.5 6.75001V20.25C1.5 20.4489 1.57902 20.6397 1.71967 20.7803C1.86032 20.921 2.05109 21 2.25 21H21.75C21.9489 21 22.1397 20.921 22.2803 20.7803C22.421 20.6397 22.5 20.4489 22.5 20.25V6.75001C22.5 6.55109 22.421 6.36033 22.2803 6.21968C22.1397 6.07902 21.9489 6.00001 21.75 6.00001H2.25Z" fill="#212529"/>
</g>
<defs>
<clipPath id="clip0_40_9727">
<rect width="24" height="24" fill="white"/>
</clipPath>
</defs>
</svg>
